<?xml version="1.0" encoding="UTF-8" standalone="no"?>
<!-- Created with Inkscape (http://www.inkscape.org/) -->

<svg
   xmlns:dc="http://purl.org/dc/elements/1.1/"
   xmlns:cc="http://creativecommons.org/ns#"
   xmlns:rdf="http://www.w3.org/1999/02/22-rdf-syntax-ns#"
   xmlns:svg="http://www.w3.org/2000/svg"
   xmlns="http://www.w3.org/2000/svg"
   xmlns:sodipodi="http://sodipodi.sourceforge.net/DTD/sodipodi-0.dtd"
   xmlns:inkscape="http://www.inkscape.org/namespaces/inkscape"
   width="330.49908"
   height="380"
   viewBox="0 0 87.444549 100.54166"
   version="1.1"
   id="svg12553"
   inkscape:version="0.92.2 5c3e80d, 2017-08-06"
   sodipodi:docname="Arpeggiator.svg">
  <defs
     id="defs12547" />
  <sodipodi:namedview
     id="base"
     pagecolor="#ffffff"
     bordercolor="#666666"
     borderopacity="1.0"
     inkscape:pageopacity="0.0"
     inkscape:pageshadow="2"
     inkscape:zoom="2.8284271"
     inkscape:cx="163.45626"
     inkscape:cy="109.04285"
     inkscape:document-units="mm"
     inkscape:current-layer="layer1"
     showgrid="true"
     fit-margin-top="0"
     fit-margin-left="0"
     fit-margin-right="0"
     fit-margin-bottom="0"
     units="px"
     inkscape:window-width="1440"
     inkscape:window-height="856"
     inkscape:window-x="0"
     inkscape:window-y="0"
     inkscape:window-maximized="0">
    <inkscape:grid
       type="xygrid"
       id="grid12870"
       originx="-20.372917"
       originy="84.666661" />
  </sodipodi:namedview>
  <metadata
     id="metadata12550">
    <rdf:RDF>
      <cc:Work
         rdf:about="">
        <dc:format>image/svg+xml</dc:format>
        <dc:type
           rdf:resource="http://purl.org/dc/dcmitype/StillImage" />
        <dc:title />
      </cc:Work>
    </rdf:RDF>
  </metadata>
  <g
     inkscape:label="Layer 1"
     inkscape:groupmode="layer"
     id="layer1"
     transform="translate(-26.543497,-161.30655)">
    <path
       inkscape:connector-curvature="0"
       id="path33453"
       d="m 26.616839,161.37987 h 87.297891 v 100.3961 H 26.616839 Z m 0,0"
       style="fill:#e6e6e6;fill-opacity:1;fill-rule:nonzero;stroke:none;stroke-width:0.27602378" />
    <path
       inkscape:connector-curvature="0"
       id="path33787"
       d="m 49.116695,242.56724 c 0,-0.35581 -0.291121,-0.64693 -0.646932,-0.64693 h -6.281685 c -0.355838,0 -0.646933,0.29112 -0.646933,0.64693 v 6.28278 c 0,0.35581 0.291095,0.64693 0.646933,0.64693 h 6.281685 c 0.355811,0 0.646932,-0.29112 0.646932,-0.64693 z m 0,0"
       style="fill:#000000;fill-opacity:1;fill-rule:nonzero;stroke:none;stroke-width:0.27602378" />
    <path
       inkscape:connector-curvature="0"
       id="path35483"
       d="M 31.535655,196.58908 H 108.99592"
       style="fill:none;stroke:#000000;stroke-width:0.18383184;stroke-linecap:round;stroke-linejoin:round;stroke-miterlimit:10;stroke-opacity:1" />
    <path
       style="fill:#000000;fill-opacity:1;stroke:none;stroke-width:0.27602378"
       d="m 66.110162,253.14752 c 0.185446,0 0.336418,-0.0647 0.444235,-0.13801 0.05175,-0.0302 0.07763,-0.0776 0.07763,-0.13801 v -0.3364 c 0,-0.0604 -0.04744,-0.11214 -0.11213,-0.11214 h -0.349356 c -0.05175,0 -0.09919,0.0431 -0.09919,0.0992 0,0.0517 0.04744,0.0949 0.09919,0.0949 h 0.250163 v 0.23289 c -0.07766,0.0604 -0.185473,0.0949 -0.306228,0.0949 -0.25445,0 -0.426985,-0.18977 -0.426985,-0.44854 0,-0.24152 0.176848,-0.44423 0.409734,-0.44423 0.133694,0 0.224261,0.0388 0.301889,0.0992 0.0217,0.0129 0.04315,0.0259 0.06903,0.0259 0.06038,0 0.112131,-0.0518 0.112131,-0.11214 0,-0.0431 -0.02593,-0.0733 -0.04744,-0.0906 -0.112131,-0.0819 -0.241538,-0.12507 -0.426985,-0.12507 -0.379518,0 -0.646933,0.29759 -0.646933,0.64693 v 0.004 c 0,0.3666 0.254477,0.64693 0.651246,0.64693 z m 0,0"
       id="path7407"
       inkscape:connector-curvature="0" />
    <path
       style="fill:#000000;fill-opacity:1;stroke:none;stroke-width:0.27602378"
       d="m 66.869966,253.03108 c 0,0.0604 0.04744,0.1035 0.103505,0.1035 0.04744,0 0.08625,-0.0259 0.103505,-0.069 l 0.103531,-0.24152 h 0.612405 l 0.103531,0.23289 c 0.0172,0.0474 0.05175,0.0776 0.107818,0.0776 0.05607,0 0.103505,-0.0474 0.103505,-0.1035 0,-0.0172 -0.0042,-0.0345 -0.01296,-0.0474 l -0.465798,-1.04371 c -0.02593,-0.0518 -0.069,-0.0863 -0.133694,-0.0863 h -0.0087 c -0.06469,0 -0.107817,0.0345 -0.133694,0.0863 l -0.465799,1.04371 c -0.0087,0.0173 -0.0172,0.0345 -0.0172,0.0474 z m 0.396795,-0.40541 0.219949,-0.50461 0.219948,0.50461 z m 0,0"
       id="path7403"
       inkscape:connector-curvature="0" />
    <path
       style="fill:#000000;fill-opacity:1;stroke:none;stroke-width:0.27602378"
       d="m 68.549594,253.02676 c 0,0.0604 0.05175,0.10782 0.11213,0.10782 0.06038,0 0.112131,-0.0474 0.112131,-0.10782 v -0.95314 h 0.306202 c 0.05609,0 0.09922,-0.0474 0.09922,-0.0992 0,-0.0561 -0.04313,-0.10351 -0.09922,-0.10351 h -0.836692 c -0.05607,0 -0.09919,0.0474 -0.09919,0.10351 0,0.0518 0.04313,0.0992 0.09919,0.0992 h 0.306229 z m 0,0"
       id="path7399"
       inkscape:connector-curvature="0" />
    <path
       style="fill:#000000;fill-opacity:1;stroke:none;stroke-width:0.27602378"
       d="m 69.556122,253.12596 h 0.741812 c 0.05178,0 0.09922,-0.0431 0.09922,-0.0992 0,-0.0518 -0.04744,-0.0992 -0.09922,-0.0992 h -0.629655 v -0.33641 h 0.539088 c 0.05175,0 0.09919,-0.0431 0.09919,-0.0949 0,-0.0561 -0.04744,-0.10351 -0.09919,-0.10351 h -0.539088 v -0.32346 h 0.62103 c 0.05178,0 0.09491,-0.0431 0.09491,-0.0992 0,-0.0561 -0.04313,-0.0992 -0.09491,-0.0992 h -0.733187 c -0.06038,0 -0.112131,0.0474 -0.112131,0.11214 v 1.03077 c 0,0.0647 0.05175,0.11214 0.112131,0.11214 z m 0,0"
       id="path7395"
       inkscape:connector-curvature="0" />
    <path
       style="fill:#000000;fill-opacity:1;stroke:none;stroke-width:0.27602378"
       d="m 71.783622,253.14752 c 0.388171,0 0.659871,-0.29759 0.659871,-0.65124 0,-0.35366 -0.267388,-0.64693 -0.655558,-0.64693 -0.383831,0 -0.655558,0.29327 -0.655558,0.64693 v 0.004 c 0,0.35366 0.267414,0.64693 0.651245,0.64693 z m 0.0042,-0.2027 c -0.250137,0 -0.426985,-0.20271 -0.426985,-0.44854 0,-0.24584 0.176848,-0.44423 0.422672,-0.44423 0.250137,0 0.426985,0.20271 0.426985,0.44423 v 0.004 c 0,0.24584 -0.172535,0.44423 -0.422672,0.44423 z m 0,0"
       id="path7387"
       inkscape:connector-curvature="0" />
    <path
       style="fill:#000000;fill-opacity:1;stroke:none;stroke-width:0.27602378"
       d="m 73.285027,253.14752 c 0.327766,0 0.539115,-0.18976 0.539115,-0.56498 v -0.61243 c 0,-0.0604 -0.04744,-0.10782 -0.107818,-0.10782 -0.06472,0 -0.112157,0.0474 -0.112157,0.10782 v 0.62105 c 0,0.2329 -0.120756,0.34934 -0.314827,0.34934 -0.198385,0 -0.319141,-0.12507 -0.319141,-0.35796 v -0.61243 c 0,-0.0604 -0.04747,-0.10782 -0.107844,-0.10782 -0.06469,0 -0.11213,0.0474 -0.11213,0.10782 v 0.62105 c 0,0.3666 0.20701,0.55636 0.534802,0.55636 z m 0,0"
       id="path7383"
       inkscape:connector-curvature="0" />
    <path
       style="fill:#000000;fill-opacity:1;stroke:none;stroke-width:0.27602378"
       d="m 74.487505,253.02676 c 0,0.0604 0.05175,0.10782 0.112131,0.10782 0.06038,0 0.11213,-0.0474 0.11213,-0.10782 v -0.95314 h 0.306202 c 0.05609,0 0.09922,-0.0474 0.09922,-0.0992 0,-0.0561 -0.04313,-0.10351 -0.09922,-0.10351 h -0.836692 c -0.05607,0 -0.09919,0.0474 -0.09919,0.10351 0,0.0518 0.04313,0.0992 0.09919,0.0992 h 0.306229 z m 0,0"
       id="path7379"
       inkscape:connector-curvature="0" />
    <path
       inkscape:connector-curvature="0"
       id="path35723"
       d="M 31.535655,252.48497 H 63.614797"
       style="fill:none;stroke:#000000;stroke-width:0.18383184;stroke-linecap:round;stroke-linejoin:round;stroke-miterlimit:10;stroke-opacity:1" />
    <path
       inkscape:connector-curvature="0"
       id="path35725"
       d="M 76.916751,252.48497 H 108.99592"
       style="fill:none;stroke:#000000;stroke-width:0.18383184;stroke-linecap:round;stroke-linejoin:round;stroke-miterlimit:10;stroke-opacity:1" />
    <path
       inkscape:connector-curvature="0"
       id="path35727"
       d="m 45.32892,237.2034 v 8.5438"
       style="fill:none;stroke:#000000;stroke-width:0.18383184;stroke-linecap:round;stroke-linejoin:round;stroke-miterlimit:10;stroke-opacity:1" />
    <path
       inkscape:connector-curvature="0"
       id="path35729"
       d="m 53.795586,237.2034 v 8.5438"
       style="fill:none;stroke:#000000;stroke-width:0.18383184;stroke-linecap:round;stroke-linejoin:round;stroke-miterlimit:10;stroke-opacity:1" />
    <path
       inkscape:connector-curvature="0"
       id="path35731"
       d="m 62.262252,237.2034 v 8.5438"
       style="fill:none;stroke:#000000;stroke-width:0.18383184;stroke-linecap:round;stroke-linejoin:round;stroke-miterlimit:10;stroke-opacity:1" />
    <path
       inkscape:connector-curvature="0"
       id="path35733"
       d="m 70.993501,237.2034 v 8.5438"
       style="fill:none;stroke:#000000;stroke-width:0.18383184;stroke-linecap:round;stroke-linejoin:round;stroke-miterlimit:10;stroke-opacity:1" />
    <path
       inkscape:connector-curvature="0"
       id="path35735"
       d="m 79.989333,237.2034 v 8.5438"
       style="fill:none;stroke:#000000;stroke-width:0.18383184;stroke-linecap:round;stroke-linejoin:round;stroke-miterlimit:10;stroke-opacity:1" />
    <path
       inkscape:connector-curvature="0"
       id="path35737"
       d="m 88.720582,237.2034 v 8.5438"
       style="fill:none;stroke:#000000;stroke-width:0.18383184;stroke-linecap:round;stroke-linejoin:round;stroke-miterlimit:10;stroke-opacity:1" />
    <path
       inkscape:connector-curvature="0"
       id="path35739"
       d="m 97.187248,237.2034 v 8.5438"
       style="fill:none;stroke:#000000;stroke-width:0.18383184;stroke-linecap:round;stroke-linejoin:round;stroke-miterlimit:10;stroke-opacity:1" />
    <path
       inkscape:connector-curvature="0"
       id="path35741"
       d="m 105.9185,237.2034 v 8.5438"
       style="fill:none;stroke:#000000;stroke-width:0.18383184;stroke-linecap:round;stroke-linejoin:round;stroke-miterlimit:10;stroke-opacity:1" />
    <path
       style="fill:#000000;fill-opacity:1;stroke:none;stroke-width:0.27602378"
       d="m 31.482924,174.1527 c 0.250164,0 0.418359,-0.0776 0.564991,-0.20701 0.0217,-0.0216 0.04313,-0.0561 0.04313,-0.0992 0,-0.0647 -0.06038,-0.12508 -0.129381,-0.12508 -0.0345,0 -0.06038,0.0129 -0.08194,0.0302 -0.112131,0.0949 -0.224261,0.15095 -0.383858,0.15095 -0.297577,0 -0.513212,-0.24583 -0.513212,-0.54773 v -0.004 c 0,-0.3019 0.215635,-0.54773 0.513212,-0.54773 0.146659,0 0.258789,0.0561 0.366607,0.14232 0.0172,0.0129 0.04313,0.0259 0.08194,0.0259 0.07332,0 0.133694,-0.0604 0.133694,-0.1337 0,-0.0474 -0.0217,-0.0863 -0.05175,-0.10782 -0.133694,-0.10351 -0.293264,-0.17683 -0.53049,-0.17683 -0.470085,0 -0.797877,0.36228 -0.797877,0.80219 v 0.004 c 0,0.44423 0.336417,0.79357 0.784939,0.79357 z m 0,0"
       id="path7375"
       inkscape:connector-curvature="0" />
    <path
       style="fill:#000000;fill-opacity:1;stroke:none;stroke-width:0.27602378"
       d="m 32.449659,173.98882 c 0,0.0776 0.06038,0.13801 0.138006,0.13801 h 0.832406 c 0.069,0 0.125068,-0.0561 0.125068,-0.12508 0,-0.069 -0.05607,-0.12076 -0.125068,-0.12076 h -0.698685 v -1.17741 c 0,-0.0733 -0.06038,-0.1337 -0.133721,-0.1337 -0.07763,0 -0.138006,0.0604 -0.138006,0.1337 z m 0,0"
       id="path7371"
       inkscape:connector-curvature="0" />
    <path
       style="fill:#000000;fill-opacity:1;stroke:none;stroke-width:0.27602378"
       d="m 34.520658,174.1527 c 0.474425,0 0.810816,-0.36228 0.810816,-0.79788 v -0.004 c 0,-0.4356 -0.332079,-0.79788 -0.806503,-0.79788 -0.474398,0 -0.810816,0.3666 -0.810816,0.8022 v 0.004 c 0,0.4356 0.332105,0.79357 0.806503,0.79356 z m 0.0042,-0.25014 c -0.306202,0 -0.52615,-0.25015 -0.52615,-0.54774 v -0.004 c 0,-0.3019 0.215635,-0.54773 0.521838,-0.54773 0.306229,0 0.526177,0.25015 0.526177,0.55205 v 0.004 c 0,0.29758 -0.215636,0.54342 -0.521865,0.54342 z m 0,0"
       id="path7367"
       inkscape:connector-curvature="0" />
    <path
       style="fill:#000000;fill-opacity:1;stroke:none;stroke-width:0.27602378"
       d="m 36.418911,174.1527 c 0.250164,0 0.418359,-0.0776 0.564992,-0.20701 0.0217,-0.0216 0.04313,-0.0561 0.04313,-0.0992 0,-0.0647 -0.06038,-0.12508 -0.129382,-0.12508 -0.0345,0 -0.06038,0.0129 -0.08194,0.0302 -0.112131,0.0949 -0.224261,0.15095 -0.383858,0.15095 -0.297576,0 -0.513212,-0.24583 -0.513212,-0.54773 v -0.004 c 0,-0.3019 0.215636,-0.54773 0.513212,-0.54773 0.146659,0 0.258789,0.0561 0.366607,0.14232 0.0172,0.0129 0.04313,0.0259 0.08194,0.0259 0.07332,0 0.133693,-0.0604 0.133693,-0.1337 0,-0.0474 -0.0217,-0.0863 -0.05175,-0.10782 -0.133694,-0.10351 -0.293264,-0.17683 -0.53049,-0.17683 -0.470085,0 -0.797877,0.36228 -0.797877,0.80219 v 0.004 c 0,0.44423 0.336418,0.79357 0.784939,0.79357 z m 0,0"
       id="path7363"
       inkscape:connector-curvature="0" />
    <path
       style="fill:#000000;fill-opacity:1;stroke:none;stroke-width:0.27602378"
       d="m 37.385593,174.00175 c 0,0.0776 0.06038,0.13802 0.138007,0.13802 0.07334,0 0.13372,-0.0604 0.13372,-0.13802 v -0.31915 l 0.250137,-0.24152 0.500301,0.63399 c 0.02593,0.0345 0.06038,0.0647 0.11213,0.0647 0.07763,0 0.138007,-0.0604 0.138007,-0.1337 0,-0.0431 -0.0172,-0.069 -0.03881,-0.0992 l -0.521864,-0.64693 0.48305,-0.46147 c 0.03019,-0.0302 0.04744,-0.0604 0.04744,-0.10351 0,-0.0647 -0.04744,-0.12508 -0.125069,-0.12508 -0.04744,0 -0.08194,0.0172 -0.11213,0.0517 l -0.733187,0.7375 v -0.65555 c 0,-0.0733 -0.06038,-0.1337 -0.13372,-0.1337 -0.07763,0 -0.138007,0.0604 -0.138007,0.1337 z m 0,0"
       id="path7359"
       inkscape:connector-curvature="0" />
    <path
       style="fill:#000000;fill-opacity:1;stroke:none;stroke-width:0.27602378"
       d="m 62.229492,174.14839 c 0.323479,0 0.552053,-0.17251 0.552053,-0.46148 v -0.004 c 0,-0.25445 -0.168196,-0.3709 -0.495988,-0.45285 -0.297577,-0.069 -0.370893,-0.12507 -0.370893,-0.24152 v -0.004 c 0,-0.10351 0.09488,-0.18545 0.25445,-0.18545 0.120756,0 0.232886,0.0431 0.353642,0.11645 0.0217,0.0129 0.04315,0.0216 0.07334,0.0216 0.069,0 0.125069,-0.0561 0.125069,-0.12508 0,-0.0517 -0.02593,-0.0906 -0.06038,-0.10782 -0.138033,-0.0949 -0.293291,-0.14664 -0.487363,-0.14664 -0.306202,0 -0.530489,0.18546 -0.530489,0.44854 v 0.004 c 0,0.28465 0.185446,0.38385 0.517551,0.46148 0.284639,0.069 0.34933,0.12939 0.34933,0.23721 v 0.004 c 0,0.11645 -0.107818,0.19408 -0.276014,0.19408 -0.168195,0 -0.306202,-0.0561 -0.431297,-0.15958 -0.0172,-0.0129 -0.04313,-0.0216 -0.08194,-0.0216 -0.069,0 -0.125069,0.0561 -0.125069,0.12508 0,0.0431 0.0217,0.0819 0.05175,0.1035 0.172508,0.12939 0.370919,0.19408 0.582242,0.19408 z m 0,0"
       id="path7355"
       inkscape:connector-curvature="0" />
    <path
       style="fill:#000000;fill-opacity:1;stroke:none;stroke-width:0.27602378"
       d="m 63.518621,174.00175 c 0,0.0776 0.06038,0.13802 0.138007,0.13802 0.07332,0 0.138006,-0.0604 0.138006,-0.13802 v -1.16878 h 0.375232 c 0.069,0 0.125069,-0.0561 0.125069,-0.12508 0,-0.069 -0.05607,-0.12507 -0.125069,-0.12507 h -1.026477 c -0.069,0 -0.125069,0.0561 -0.125069,0.12507 0,0.069 0.05607,0.12508 0.125069,0.12508 h 0.375232 z m 0,0"
       id="path7351"
       inkscape:connector-curvature="0" />
    <path
       style="fill:#000000;fill-opacity:1;stroke:none;stroke-width:0.27602378"
       d="m 64.743324,174.12683 h 0.910035 c 0.06469,0 0.120756,-0.0517 0.120756,-0.12076 0,-0.069 -0.05607,-0.12076 -0.120756,-0.12076 h -0.776314 v -0.41835 h 0.664183 c 0.069,0 0.120756,-0.0517 0.120756,-0.11645 0,-0.069 -0.05175,-0.12507 -0.120756,-0.12507 h -0.664183 v -0.4011 h 0.763376 c 0.069,0 0.120755,-0.0517 0.120755,-0.12076 0,-0.069 -0.05175,-0.12076 -0.120755,-0.12076 h -0.897097 c -0.07763,0 -0.138006,0.0561 -0.138006,0.1337 v 1.2723 c 0,0.0776 0.06038,0.13801 0.138006,0.13801 z m 0,0"
       id="path7347"
       inkscape:connector-curvature="0" />
    <path
       style="fill:#000000;fill-opacity:1;stroke:none;stroke-width:0.27602378"
       d="m 66.130508,174.00175 c 0,0.0776 0.06038,0.13802 0.138007,0.13802 0.07334,0 0.13372,-0.0604 0.13372,-0.13802 v -0.3709 h 0.306203 c 0.34073,0 0.621056,-0.18114 0.621056,-0.53049 v -0.004 c 0,-0.31052 -0.228573,-0.51323 -0.590867,-0.51323 h -0.470112 c -0.07763,0 -0.138007,0.0561 -0.138007,0.1337 z m 0.271727,-0.61674 v -0.55636 h 0.314828 c 0.202697,0 0.336418,0.0949 0.336418,0.27603 v 0.004 c 0,0.15957 -0.129408,0.27602 -0.336418,0.27602 z m 0,0"
       id="path7343"
       inkscape:connector-curvature="0" />
    <path
       style="fill:#000000;fill-opacity:1;stroke:none;stroke-width:0.27602378"
       d="m 68.202011,174.14839 c 0.323479,0 0.552053,-0.17251 0.552053,-0.46148 v -0.004 c 0,-0.25445 -0.168196,-0.3709 -0.495988,-0.45285 -0.297577,-0.069 -0.370893,-0.12507 -0.370893,-0.24152 v -0.004 c 0,-0.10351 0.09488,-0.18545 0.25445,-0.18545 0.120756,0 0.232886,0.0431 0.353642,0.11645 0.0217,0.0129 0.04315,0.0216 0.07334,0.0216 0.069,0 0.125069,-0.0561 0.125069,-0.12508 0,-0.0517 -0.02593,-0.0906 -0.06038,-0.10782 -0.138033,-0.0949 -0.293291,-0.14664 -0.487363,-0.14664 -0.306202,0 -0.530489,0.18546 -0.530489,0.44854 v 0.004 c 0,0.28465 0.185446,0.38385 0.517551,0.46148 0.284639,0.069 0.34933,0.12939 0.34933,0.23721 v 0.004 c 0,0.11645 -0.107818,0.19408 -0.276014,0.19408 -0.168195,0 -0.306202,-0.0561 -0.431297,-0.15958 -0.0172,-0.0129 -0.04313,-0.0216 -0.08194,-0.0216 -0.069,0 -0.125069,0.0561 -0.125069,0.12508 0,0.0431 0.0217,0.0819 0.05175,0.1035 0.172508,0.12939 0.370919,0.19408 0.582242,0.19408 z m 0,0"
       id="path7339"
       inkscape:connector-curvature="0" />
    <path
       style="fill:#000000;fill-opacity:1;stroke:none;stroke-width:0.27602378"
       d="m 42.895329,175.35142 c 0,0.0604 0.05175,0.10782 0.112131,0.10782 0.06038,0 0.112156,-0.0474 0.112156,-0.10782 v -0.34072 h 0.276014 l 0.306202,0.39247 c 0.02593,0.0345 0.05607,0.0561 0.107844,0.0561 0.05175,0 0.103505,-0.0388 0.103505,-0.10351 0,-0.0345 -0.01296,-0.0561 -0.0345,-0.0819 l -0.241539,-0.3019 c 0.168223,-0.0561 0.284666,-0.17683 0.284666,-0.37522 v -0.004 c 0,-0.11213 -0.0345,-0.2027 -0.103505,-0.27171 -0.07766,-0.0776 -0.202724,-0.12507 -0.362294,-0.12507 h -0.448548 c -0.06038,0 -0.112131,0.0474 -0.112131,0.11213 z m 0.224287,-0.5348 v -0.42266 h 0.319141 c 0.163883,0 0.258762,0.0733 0.258762,0.21133 0,0.12939 -0.09919,0.21133 -0.258762,0.21133 z m 0,0"
       id="path7335"
       inkscape:connector-curvature="0" />
    <path
       style="fill:#000000;fill-opacity:1;stroke:none;stroke-width:0.27602378"
       d="m 44.769241,175.47218 c 0.327765,0 0.539115,-0.18977 0.539115,-0.56499 v -0.61243 c 0,-0.0604 -0.04744,-0.10782 -0.107818,-0.10782 -0.06472,0 -0.112157,0.0474 -0.112157,0.10782 v 0.62106 c 0,0.23289 -0.120756,0.34934 -0.314828,0.34934 -0.198384,0 -0.31914,-0.12507 -0.31914,-0.35797 v -0.61243 c 0,-0.0604 -0.04747,-0.10782 -0.107844,-0.10782 -0.06469,0 -0.112131,0.0474 -0.112131,0.10782 v 0.62106 c 0,0.36659 0.20701,0.55636 0.534803,0.55636 z m 0,0"
       id="path7331"
       inkscape:connector-curvature="0" />
    <path
       style="fill:#000000;fill-opacity:1;stroke:none;stroke-width:0.27602378"
       d="m 45.679857,175.35142 c 0,0.0604 0.05175,0.10782 0.112131,0.10782 0.06038,0 0.107844,-0.0474 0.107844,-0.10782 v -0.79789 l 0.646906,0.8367 c 0.03021,0.0388 0.0604,0.069 0.112157,0.069 h 0.0087 c 0.06038,0 0.107818,-0.0517 0.107818,-0.11213 v -1.05234 c 0,-0.0604 -0.04744,-0.10783 -0.107818,-0.10783 -0.06038,0 -0.107844,0.0474 -0.107844,0.10783 v 0.772 l -0.629656,-0.81513 c -0.03019,-0.0388 -0.0604,-0.0647 -0.112156,-0.0647 h -0.02593 c -0.06038,0 -0.11213,0.0517 -0.11213,0.11213 z m 0,0"
       id="path7327"
       inkscape:connector-curvature="0" />
    <path
       style="fill:#000000;fill-opacity:1;stroke:none;stroke-width:0.27602378"
       d="m 52.036525,175.35142 c 0,0.0604 0.05175,0.10782 0.11213,0.10782 0.06038,0 0.112157,-0.0474 0.112157,-0.10782 v -0.34072 h 0.276013 l 0.306203,0.39247 c 0.02593,0.0345 0.05606,0.0561 0.107844,0.0561 0.05175,0 0.103505,-0.0388 0.103505,-0.10351 0,-0.0345 -0.01297,-0.0561 -0.0345,-0.0819 l -0.24154,-0.30191 c 0.168222,-0.0561 0.284665,-0.17682 0.284665,-0.37522 v -0.004 c 0,-0.11213 -0.0345,-0.2027 -0.103505,-0.27171 -0.07766,-0.0776 -0.202724,-0.12507 -0.362294,-0.12507 h -0.448548 c -0.06038,0 -0.11213,0.0474 -0.11213,0.11213 z m 0.224287,-0.5348 v -0.42266 h 0.31914 c 0.163883,0 0.258763,0.0733 0.258763,0.21133 0,0.12939 -0.09919,0.21133 -0.258763,0.21133 z m 0,0"
       id="path7323"
       inkscape:connector-curvature="0" />
    <path
       style="fill:#000000;fill-opacity:1;stroke:none;stroke-width:0.27602378"
       d="m 53.509169,175.45061 h 0.741812 c 0.05178,0 0.09922,-0.0431 0.09922,-0.0992 0,-0.0517 -0.04744,-0.0992 -0.09922,-0.0992 h -0.629655 v -0.3364 h 0.539088 c 0.05175,0 0.09919,-0.0431 0.09919,-0.0949 0,-0.0561 -0.04744,-0.10351 -0.09919,-0.10351 h -0.539088 v -0.32347 h 0.62103 c 0.05178,0 0.09491,-0.0431 0.09491,-0.0992 0,-0.0561 -0.04313,-0.0992 -0.09491,-0.0992 h -0.733187 c -0.06038,0 -0.11213,0.0474 -0.11213,0.11214 v 1.03077 c 0,0.0647 0.05175,0.11214 0.11213,0.11214 z m 0,0"
       id="path7319"
       inkscape:connector-curvature="0" />
    <path
       style="fill:#000000;fill-opacity:1;stroke:none;stroke-width:0.27602378"
       d="m 55.092885,175.46786 c 0.267388,0 0.448522,-0.13801 0.448522,-0.37522 v -0.004 c 0,-0.20701 -0.133694,-0.3019 -0.401082,-0.36659 -0.241511,-0.0561 -0.297603,-0.0992 -0.297603,-0.19839 0,-0.0863 0.07334,-0.15095 0.202724,-0.15095 0.09919,0 0.194072,0.0302 0.288951,0.0949 0.0172,0.0129 0.0345,0.0173 0.05606,0.0173 0.06038,0 0.107818,-0.0474 0.107818,-0.10351 0,-0.0431 -0.02593,-0.0733 -0.05175,-0.0863 -0.112131,-0.0776 -0.237199,-0.11645 -0.39677,-0.11645 -0.250163,0 -0.426984,0.14664 -0.426984,0.36228 v 0.004 c 0,0.2329 0.146632,0.31053 0.414046,0.37522 0.237199,0.0517 0.284639,0.10351 0.284639,0.18977 v 0.004 c 0,0.0949 -0.08625,0.15957 -0.219948,0.15957 -0.138007,0 -0.250137,-0.0474 -0.353669,-0.12938 -0.01296,-0.0129 -0.0345,-0.0216 -0.06469,-0.0216 -0.05607,0 -0.103505,0.0474 -0.103505,0.10351 0,0.0345 0.0172,0.0647 0.04313,0.0863 0.138006,0.10351 0.301916,0.15526 0.470111,0.15526 z m 0,0"
       id="path7315"
       inkscape:connector-curvature="0" />
    <path
       style="fill:#000000;fill-opacity:1;stroke:none;stroke-width:0.27602378"
       d="m 55.975059,175.45061 h 0.741812 c 0.05178,0 0.09922,-0.0431 0.09922,-0.0992 0,-0.0517 -0.04744,-0.0992 -0.09922,-0.0992 h -0.629655 v -0.3364 h 0.539089 c 0.05175,0 0.09919,-0.0431 0.09919,-0.0949 0,-0.0561 -0.04744,-0.10351 -0.09919,-0.10351 h -0.539089 v -0.32347 h 0.62103 c 0.05178,0 0.09491,-0.0431 0.09491,-0.0992 0,-0.0561 -0.04313,-0.0992 -0.09491,-0.0992 h -0.733187 c -0.06038,0 -0.11213,0.0474 -0.11213,0.11214 v 1.03077 c 0,0.0647 0.05175,0.11214 0.11213,0.11214 z m 0,0"
       id="path7311"
       inkscape:connector-curvature="0" />
    <path
       style="fill:#000000;fill-opacity:1;stroke:none;stroke-width:0.27602378"
       d="m 57.445693,175.35142 c 0,0.0604 0.05175,0.10782 0.11213,0.10782 0.06038,0 0.112131,-0.0474 0.112131,-0.10782 v -0.95315 h 0.306202 c 0.05609,0 0.09922,-0.0474 0.09922,-0.0992 0,-0.0561 -0.04313,-0.10351 -0.09922,-0.10351 h -0.836692 c -0.05607,0 -0.09919,0.0474 -0.09919,0.10351 0,0.0517 0.04313,0.0992 0.09919,0.0992 h 0.306229 z m 0,0"
       id="path7307"
       inkscape:connector-curvature="0" />
    <path
       inkscape:connector-curvature="0"
       id="path35805"
       d="m 34.74558,181.31115 v 10.7908"
       style="fill:none;stroke:#000000;stroke-width:0.18383184;stroke-linecap:round;stroke-linejoin:round;stroke-miterlimit:10;stroke-opacity:1" />
    <path
       inkscape:connector-curvature="0"
       id="path35807"
       d="m 75.22683,179.72419 v 10.78972"
       style="fill:none;stroke:#000000;stroke-width:0.18383184;stroke-linecap:round;stroke-linejoin:round;stroke-miterlimit:10;stroke-opacity:1" />
    <path
       inkscape:connector-curvature="0"
       id="path35809"
       d="m 55.118497,179.72419 v 10.78972"
       style="fill:none;stroke:#000000;stroke-width:0.18383184;stroke-linecap:round;stroke-linejoin:round;stroke-miterlimit:10;stroke-opacity:1" />
    <path
       inkscape:connector-curvature="0"
       id="path35811"
       d="m 85.54558,179.72419 v 10.78972"
       style="fill:none;stroke:#000000;stroke-width:0.18383184;stroke-linecap:round;stroke-linejoin:round;stroke-miterlimit:10;stroke-opacity:1" />
    <path
       inkscape:connector-curvature="0"
       id="path35813"
       d="m 95.599747,179.72419 v 10.78972"
       style="fill:none;stroke:#000000;stroke-width:0.18383184;stroke-linecap:round;stroke-linejoin:round;stroke-miterlimit:10;stroke-opacity:1" />
    <path
       inkscape:connector-curvature="0"
       id="path35815"
       d="m 105.9185,179.72419 v 10.78972"
       style="fill:none;stroke:#000000;stroke-width:0.18383184;stroke-linecap:round;stroke-linejoin:round;stroke-miterlimit:10;stroke-opacity:1" />
    <path
       inkscape:connector-curvature="0"
       id="path35817"
       d="m 65.172664,179.72419 v 10.78972"
       style="fill:none;stroke:#000000;stroke-width:0.18383184;stroke-linecap:round;stroke-linejoin:round;stroke-miterlimit:10;stroke-opacity:1" />
    <path
       style="fill:#000000;fill-opacity:1;stroke:none;stroke-width:0.27602378"
       d="m 41.048061,185.72278 h 0.741813 c 0.05178,0 0.09922,-0.0431 0.09922,-0.0992 0,-0.0517 -0.04744,-0.0992 -0.09922,-0.0992 h -0.629656 v -0.3364 h 0.539089 c 0.05175,0 0.09919,-0.0431 0.09919,-0.0949 0,-0.0561 -0.04744,-0.10351 -0.09919,-0.10351 h -0.539089 v -0.32346 h 0.62103 c 0.05178,0 0.09491,-0.0431 0.09491,-0.0992 0,-0.0561 -0.04313,-0.0992 -0.09491,-0.0992 h -0.733187 c -0.06038,0 -0.11213,0.0474 -0.11213,0.11213 v 1.03077 c 0,0.0647 0.05175,0.11214 0.11213,0.11214 z m 0,0"
       id="path7303"
       inkscape:connector-curvature="0" />
    <path
       style="fill:#000000;fill-opacity:1;stroke:none;stroke-width:0.27602378"
       d="m 42.13198,185.62789 c 0,0.0647 0.05175,0.10351 0.103505,0.10351 0.04744,0 0.07763,-0.0216 0.107818,-0.0604 l 0.332105,-0.43129 0.336391,0.43992 c 0.02593,0.0345 0.05175,0.0517 0.09922,0.0517 0.06469,0 0.11213,-0.0474 0.11213,-0.10782 0,-0.0302 -0.0172,-0.0604 -0.0345,-0.0819 l -0.370919,-0.46148 0.349356,-0.4356 c 0.0217,-0.0302 0.0345,-0.0517 0.0345,-0.0863 0,-0.0604 -0.05175,-0.0992 -0.09919,-0.0992 -0.04747,0 -0.07766,0.0216 -0.107844,0.0604 l -0.314828,0.40972 -0.314854,-0.41834 c -0.03019,-0.0345 -0.05607,-0.0517 -0.103505,-0.0517 -0.06038,0 -0.107818,0.0474 -0.107818,0.10782 0,0.0302 0.0172,0.0561 0.0345,0.0819 l 0.349356,0.43559 -0.37092,0.46148 c -0.0217,0.0259 -0.0345,0.0518 -0.0345,0.0819 z m 0,0"
       id="path7299"
       inkscape:connector-curvature="0" />
    <path
       style="fill:#000000;fill-opacity:1;stroke:none;stroke-width:0.27602378"
       d="m 43.851428,185.62358 c 0,0.0604 0.05175,0.10782 0.11213,0.10782 0.06038,0 0.11213,-0.0474 0.11213,-0.10782 v -0.95314 h 0.306203 c 0.05609,0 0.09922,-0.0475 0.09922,-0.0992 0,-0.0561 -0.04313,-0.1035 -0.09922,-0.1035 h -0.836692 c -0.05607,0 -0.09919,0.0474 -0.09919,0.1035 0,0.0517 0.04313,0.0992 0.09919,0.0992 h 0.306229 z m 0,0"
       id="path7295"
       inkscape:connector-curvature="0" />
    <path
       style="fill:#000000;fill-opacity:1;stroke:none;stroke-width:0.27602378"
       d="m 45.828288,185.74434 c 0.202698,0 0.336418,-0.0647 0.452861,-0.1682 0.0217,-0.0173 0.03881,-0.0474 0.03881,-0.0776 0,-0.0561 -0.05175,-0.10351 -0.107818,-0.10351 -0.02593,0 -0.04744,0.009 -0.06469,0.0259 -0.09059,0.0776 -0.18116,0.12076 -0.314854,0.12076 -0.237199,0 -0.414046,-0.2027 -0.414046,-0.44853 0,-0.24584 0.176847,-0.44423 0.414046,-0.44423 0.120756,0 0.215635,0.0431 0.301916,0.11214 0.01296,0.0129 0.0345,0.0216 0.06469,0.0216 0.06038,0 0.11213,-0.0474 0.11213,-0.10782 0,-0.0388 -0.0217,-0.069 -0.04313,-0.0863 -0.11213,-0.0863 -0.237225,-0.14232 -0.431297,-0.14232 -0.379519,0 -0.646933,0.29327 -0.646933,0.64693 v 0.004 c 0,0.36228 0.271727,0.64693 0.638307,0.64693 z m 0,0"
       id="path7287"
       inkscape:connector-curvature="0" />
    <path
       style="fill:#000000;fill-opacity:1;stroke:none;stroke-width:0.27602378"
       d="m 46.622144,185.61064 c 0,0.0647 0.05175,0.11214 0.112131,0.11214 h 0.677121 c 0.05607,0 0.103532,-0.0431 0.103532,-0.0992 0,-0.0561 -0.04747,-0.10351 -0.103532,-0.10351 h -0.564965 v -0.95314 c 0,-0.0604 -0.05178,-0.10782 -0.112156,-0.10782 -0.06038,0 -0.112131,0.0474 -0.112131,0.10782 z m 0,0"
       id="path7283"
       inkscape:connector-curvature="0" />
    <path
       style="fill:#000000;fill-opacity:1;stroke:none;stroke-width:0.27602378"
       d="m 47.77668,185.62358 c 0,0.0604 0.05175,0.10782 0.11213,0.10782 0.06038,0 0.112157,-0.0474 0.112157,-0.10782 v -0.26308 l 0.202698,-0.19408 0.405394,0.51323 c 0.0217,0.0302 0.04744,0.0517 0.09059,0.0517 0.06469,0 0.11213,-0.0474 0.11213,-0.10782 0,-0.0345 -0.01297,-0.0561 -0.03019,-0.0776 l -0.422672,-0.52617 0.38817,-0.37522 c 0.02593,-0.0259 0.04313,-0.0517 0.04313,-0.0863 0,-0.0517 -0.04313,-0.0992 -0.103505,-0.0992 -0.03884,0 -0.06472,0.0129 -0.09059,0.0388 l -0.595154,0.59949 v -0.53048 c 0,-0.0604 -0.05178,-0.10782 -0.112157,-0.10782 -0.06038,0 -0.11213,0.0474 -0.11213,0.10782 z m 0,0"
       id="path7279"
       inkscape:connector-curvature="0" />
    <path
       style="fill:#000000;fill-opacity:1;stroke:none;stroke-width:0.27602378"
       d="m 45.204434,200.89411 c 0,0.0776 0.06038,0.13802 0.133694,0.13802 0.07763,0 0.138007,-0.0604 0.138007,-0.13802 v -1.3068 c 0,-0.0733 -0.06038,-0.1337 -0.138007,-0.1337 h -0.0042 c -0.03881,0 -0.07763,0.009 -0.129382,0.0259 l -0.237225,0.0733 c -0.05175,0.0173 -0.09057,0.0604 -0.09057,0.11645 0,0.0647 0.05606,0.11644 0.120756,0.11644 0.01296,0 0.0345,-0.004 0.04744,-0.009 l 0.159596,-0.0474 z m 0,0"
       id="path7275"
       inkscape:connector-curvature="0" />
    <path
       style="fill:#000000;fill-opacity:1;stroke:none;stroke-width:0.27602378"
       d="m 53.251788,200.8898 c 0,0.0819 0.06038,0.12939 0.146632,0.12939 h 0.875533 c 0.06469,0 0.120756,-0.0518 0.120756,-0.12077 0,-0.0647 -0.05607,-0.11644 -0.120756,-0.11644 h -0.625369 l 0.314827,-0.2674 c 0.27604,-0.21996 0.405421,-0.35365 0.405421,-0.59518 v -0.009 c 0,-0.27603 -0.211349,-0.46148 -0.513238,-0.46148 -0.241512,0 -0.383858,0.0949 -0.508926,0.25015 -0.0217,0.0259 -0.0345,0.0561 -0.0345,0.0862 0,0.069 0.05607,0.12076 0.125068,0.12076 0.04313,0 0.07334,-0.0173 0.09491,-0.0388 0.09488,-0.11645 0.181134,-0.17252 0.306203,-0.17252 0.138006,0 0.250137,0.0863 0.250137,0.24152 0,0.13801 -0.07763,0.23721 -0.293264,0.41404 l -0.474425,0.40541 c -0.04313,0.0388 -0.069,0.0819 -0.069,0.1337 z m 0,0"
       id="path7271"
       inkscape:connector-curvature="0" />
    <path
       style="fill:#000000;fill-opacity:1;stroke:none;stroke-width:0.27602378"
       d="m 62.421663,201.04506 c 0.323453,0 0.543428,-0.2027 0.543428,-0.49167 v -0.004 c 0,-0.28465 -0.224287,-0.40109 -0.457174,-0.43129 l 0.366607,-0.37521 c 0.04313,-0.0474 0.07763,-0.0863 0.07763,-0.15095 0,-0.0733 -0.06038,-0.11645 -0.138007,-0.11645 h -0.789278 c -0.06469,0 -0.120756,0.0517 -0.120756,0.11645 0,0.0647 0.05606,0.11644 0.120756,0.11644 h 0.560678 l -0.362267,0.38816 c -0.04313,0.0431 -0.05607,0.0733 -0.05607,0.11214 0,0.0604 0.05175,0.11644 0.116444,0.11644 h 0.05607 c 0.215635,0 0.353642,0.0863 0.353642,0.23721 v 0.004 c 0,0.14233 -0.112131,0.2329 -0.267388,0.2329 -0.142319,0 -0.25445,-0.0474 -0.349356,-0.14664 -0.0217,-0.0216 -0.05175,-0.0345 -0.09057,-0.0345 -0.07332,0 -0.129381,0.0604 -0.129381,0.12938 0,0.0388 0.0172,0.0776 0.04313,0.0992 0.125069,0.12076 0.293291,0.19839 0.521864,0.19839 z m 0,0"
       id="path7267"
       inkscape:connector-curvature="0" />
    <path
       style="fill:#000000;fill-opacity:1;stroke:none;stroke-width:0.27602378"
       d="m 71.158654,200.90274 c 0,0.0733 0.05606,0.12939 0.129381,0.12939 0.07334,0 0.129408,-0.0561 0.129408,-0.12939 v -0.22859 h 0.120755 c 0.06469,0 0.112131,-0.0517 0.112131,-0.11213 0,-0.0604 -0.04744,-0.11213 -0.112131,-0.11213 H 71.417443 V 199.583 c 0,-0.0733 -0.05607,-0.1337 -0.129408,-0.1337 -0.08194,0 -0.116443,0.0345 -0.168196,0.0906 l -0.724561,0.86257 c -0.03881,0.0431 -0.06038,0.0906 -0.06038,0.14233 0,0.0733 0.06038,0.12938 0.133694,0.12938 h 0.69006 z m -0.5089,-0.45285 0.5089,-0.61243 v 0.61243 z m 0,0"
       id="path7263"
       inkscape:connector-curvature="0" />
    <path
       style="fill:#000000;fill-opacity:1;stroke:none;stroke-width:0.27602378"
       d="m 80.108925,201.04506 c 0.327766,0 0.564991,-0.20702 0.564991,-0.52186 v -0.004 c 0,-0.32778 -0.237225,-0.48735 -0.539115,-0.48735 -0.103505,0 -0.172508,0.0173 -0.245824,0.0431 l 0.02593,-0.36228 h 0.57793 c 0.069,0 0.120755,-0.0517 0.120755,-0.11644 0,-0.069 -0.05175,-0.12076 -0.120755,-0.12076 H 79.79415 c -0.06472,0 -0.120782,0.0474 -0.125095,0.12076 l -0.03019,0.55636 c -0.0042,0.0517 0.01297,0.0906 0.05175,0.11644 0.05175,0.0388 0.08625,0.0561 0.129408,0.0561 0.03881,0 0.11213,-0.0561 0.263075,-0.0561 0.189759,0 0.31914,0.0992 0.31914,0.25878 v 0.004 c 0,0.16389 -0.125068,0.2674 -0.297577,0.2674 -0.120756,0 -0.232886,-0.0431 -0.336417,-0.12939 -0.0217,-0.0216 -0.04744,-0.0302 -0.08194,-0.0302 -0.069,0 -0.129381,0.0604 -0.129381,0.1337 0,0.0431 0.0217,0.0776 0.05606,0.10351 0.125069,0.0992 0.284665,0.1682 0.495988,0.1682 z m 0,0"
       id="path7259"
       inkscape:connector-curvature="0" />
    <path
       style="fill:#000000;fill-opacity:1;stroke:none;stroke-width:0.27602378"
       d="m 88.721694,201.04506 c 0.323479,0 0.573616,-0.21996 0.573616,-0.52617 v -0.004 c 0,-0.30622 -0.241511,-0.48304 -0.539115,-0.48304 -0.185446,0 -0.288951,0.0733 -0.370893,0.15095 0.01296,-0.28034 0.138007,-0.48736 0.370893,-0.48736 0.103505,0 0.181134,0.0302 0.263076,0.0863 0.0217,0.009 0.04315,0.0172 0.06903,0.0172 0.069,0 0.129382,-0.0517 0.129382,-0.12507 0,-0.0561 -0.02593,-0.0906 -0.069,-0.11645 -0.09919,-0.069 -0.224287,-0.11214 -0.383857,-0.11214 -0.439923,0 -0.664184,0.37091 -0.664184,0.84533 v 0.004 c 0,0.31053 0.07332,0.4701 0.189759,0.58655 0.103532,0.10351 0.241539,0.16389 0.431298,0.16389 z m -0.0087,-0.23721 c -0.194071,0 -0.31914,-0.11644 -0.31914,-0.27602 v -0.004 c 0,-0.14664 0.120756,-0.27171 0.310515,-0.27171 0.194072,0 0.31914,0.11644 0.31914,0.27171 v 0.004 c 0,0.15958 -0.116443,0.27602 -0.310515,0.27602 z m 0,0"
       id="path7255"
       inkscape:connector-curvature="0" />
    <path
       style="fill:#000000;fill-opacity:1;stroke:none;stroke-width:0.27602378"
       d="m 96.913907,200.90705 c 0,0.0776 0.06903,0.12508 0.138033,0.12508 0.05607,0 0.09919,-0.0302 0.133694,-0.0906 l 0.638307,-1.21624 c 0.0217,-0.0431 0.03881,-0.0906 0.03881,-0.12938 0,-0.0776 -0.04744,-0.12076 -0.125069,-0.12076 h -0.866907 c -0.06469,0 -0.120756,0.0517 -0.120756,0.11645 0,0.069 0.05606,0.12076 0.120756,0.12076 h 0.668496 l -0.599493,1.11272 c -0.01296,0.0259 -0.02593,0.0604 -0.02593,0.0819 z m 0,0"
       id="path7251"
       inkscape:connector-curvature="0" />
    <path
       style="fill:#000000;fill-opacity:1;stroke:none;stroke-width:0.27602378"
       d="m 105.8677,201.04075 c 0.3407,0 0.59086,-0.17252 0.59086,-0.44854 v -0.004 c 0,-0.18114 -0.10781,-0.29328 -0.28035,-0.37091 0.13372,-0.069 0.2286,-0.17251 0.2286,-0.34503 v -0.004 c 0,-0.23721 -0.2286,-0.41835 -0.53911,-0.41835 -0.30621,0 -0.53481,0.18114 -0.53481,0.41835 v 0.004 c 0,0.17252 0.0949,0.27603 0.22429,0.34503 -0.17253,0.0733 -0.27604,0.18977 -0.27604,0.37522 v 0.004 c 0,0.2674 0.25017,0.44423 0.58656,0.44423 z m 0,-0.91433 c -0.15957,0 -0.27602,-0.0949 -0.27602,-0.22858 v -0.004 c 0,-0.11645 0.11213,-0.21565 0.27602,-0.21565 0.16819,0 0.27601,0.0992 0.27601,0.21565 v 0.004 c 0,0.1337 -0.11644,0.22858 -0.27601,0.22858 z m 0,0.68575 c -0.2027,0 -0.31914,-0.10351 -0.31914,-0.22859 v -0.004 c 0,-0.14232 0.138,-0.2372 0.31914,-0.2372 0.18544,0 0.32776,0.0949 0.32776,0.2372 v 0.004 c 0,0.12508 -0.12507,0.22859 -0.32776,0.22859 z m 0,0"
       id="path7247"
       inkscape:connector-curvature="0" />
    <path
       inkscape:connector-curvature="0"
       id="path36677"
       d="m 57.583361,242.56724 c 0,-0.35581 -0.291121,-0.64693 -0.646933,-0.64693 h -6.281684 c -0.355812,0 -0.646933,0.29112 -0.646933,0.64693 v 6.28278 c 0,0.35581 0.291121,0.64693 0.646933,0.64693 h 6.281684 c 0.355812,0 0.646933,-0.29112 0.646933,-0.64693 z m 0,0"
       style="fill:#000000;fill-opacity:1;fill-rule:nonzero;stroke:none;stroke-width:0.27602378" />
    <path
       inkscape:connector-curvature="0"
       id="path36679"
       d="m 66.050027,242.56724 c 0,-0.35581 -0.291121,-0.64693 -0.646933,-0.64693 h -6.281711 c -0.355785,0 -0.646906,0.29112 -0.646906,0.64693 v 6.28278 c 0,0.35581 0.291121,0.64693 0.646906,0.64693 h 6.281711 c 0.355812,0 0.646933,-0.29112 0.646933,-0.64693 z m 0,0"
       style="fill:#000000;fill-opacity:1;fill-rule:nonzero;stroke:none;stroke-width:0.27602378" />
    <path
       inkscape:connector-curvature="0"
       id="path36681"
       d="m 74.781276,242.56724 c 0,-0.35581 -0.29001,-0.64693 -0.645848,-0.64693 h -6.28277 c -0.355811,0 -0.646932,0.29112 -0.646932,0.64693 v 6.28278 c 0,0.35581 0.291121,0.64693 0.646932,0.64693 h 6.28277 c 0.355838,0 0.645848,-0.29112 0.645848,-0.64693 z m 0,0"
       style="fill:#000000;fill-opacity:1;fill-rule:nonzero;stroke:none;stroke-width:0.27602378" />
    <path
       inkscape:connector-curvature="0"
       id="path36683"
       d="m 83.777108,242.56724 c 0,-0.35581 -0.291121,-0.64693 -0.646906,-0.64693 h -6.281711 c -0.355812,0 -0.646933,0.29112 -0.646933,0.64693 v 6.28278 c 0,0.35581 0.291121,0.64693 0.646933,0.64693 h 6.281711 c 0.355785,0 0.646906,-0.29112 0.646906,-0.64693 z m 0,0"
       style="fill:#000000;fill-opacity:1;fill-rule:nonzero;stroke:none;stroke-width:0.27602378" />
    <path
       inkscape:connector-curvature="0"
       id="path36685"
       d="m 92.508357,242.56724 c 0,-0.35581 -0.291121,-0.64693 -0.646959,-0.64693 h -6.281684 c -0.355812,0 -0.646907,0.29112 -0.646907,0.64693 v 6.28278 c 0,0.35581 0.291095,0.64693 0.646907,0.64693 h 6.281684 c 0.355838,0 0.646959,-0.29112 0.646959,-0.64693 z m 0,0"
       style="fill:#000000;fill-opacity:1;fill-rule:nonzero;stroke:none;stroke-width:0.27602378" />
    <path
       inkscape:connector-curvature="0"
       id="path36687"
       d="m 100.97503,242.56724 c 0,-0.35581 -0.29113,-0.64693 -0.64691,-0.64693 h -6.282773 c -0.355838,0 -0.645874,0.29112 -0.645874,0.64693 v 6.28278 c 0,0.35581 0.290036,0.64693 0.645874,0.64693 h 6.282773 c 0.35578,0 0.64691,-0.29112 0.64691,-0.64693 z m 0,0"
       style="fill:#000000;fill-opacity:1;fill-rule:nonzero;stroke:none;stroke-width:0.27602378" />
    <path
       inkscape:connector-curvature="0"
       id="path36689"
       d="m 109.70627,242.56724 c 0,-0.35581 -0.29112,-0.64693 -0.64693,-0.64693 h -6.28171 c -0.35579,0 -0.64691,0.29112 -0.64691,0.64693 v 6.28278 c 0,0.35581 0.29112,0.64693 0.64691,0.64693 h 6.28171 c 0.35581,0 0.64693,-0.29112 0.64693,-0.64693 z m 0,0"
       style="fill:#000000;fill-opacity:1;fill-rule:nonzero;stroke:none;stroke-width:0.27602378" />
    <path
       style="fill:#000000;fill-opacity:1;stroke:none;stroke-width:0.27602378"
       d="m 73.542731,175.47218 c 0.185447,0 0.336418,-0.0647 0.444235,-0.13802 0.05175,-0.0302 0.07763,-0.0776 0.07763,-0.13801 v -0.3364 c 0,-0.0604 -0.04744,-0.11214 -0.11213,-0.11214 H 73.60311 c -0.05175,0 -0.09919,0.0431 -0.09919,0.0992 0,0.0517 0.04744,0.0949 0.09919,0.0949 h 0.250164 v 0.2329 c -0.07766,0.0604 -0.185473,0.0949 -0.306229,0.0949 -0.25445,0 -0.426985,-0.18977 -0.426985,-0.44854 0,-0.24152 0.176848,-0.44423 0.409734,-0.44423 0.133694,0 0.224261,0.0388 0.30189,0.0992 0.0217,0.0129 0.04315,0.0259 0.06903,0.0259 0.06038,0 0.112131,-0.0517 0.112131,-0.11213 0,-0.0431 -0.02593,-0.0733 -0.04744,-0.0906 -0.11213,-0.082 -0.241538,-0.12507 -0.426985,-0.12507 -0.379518,0 -0.646932,0.29758 -0.646932,0.64693 v 0.004 c 0,0.36659 0.254476,0.64693 0.651245,0.64693 z m 0,0"
       id="path6783"
       inkscape:connector-curvature="0" />
    <path
       style="fill:#000000;fill-opacity:1;stroke:none;stroke-width:0.27602378"
       d="m 74.302535,175.35573 c 0,0.0604 0.04744,0.10351 0.103505,0.10351 0.04744,0 0.08625,-0.0259 0.103505,-0.069 l 0.103531,-0.24152 h 0.612405 l 0.103532,0.23289 c 0.0172,0.0474 0.05175,0.0776 0.107817,0.0776 0.05607,0 0.103505,-0.0474 0.103505,-0.10351 0,-0.0172 -0.0042,-0.0345 -0.01296,-0.0474 l -0.465799,-1.04371 c -0.02593,-0.0517 -0.069,-0.0863 -0.133694,-0.0863 h -0.0087 c -0.06469,0 -0.107817,0.0345 -0.133693,0.0863 l -0.465799,1.04371 c -0.0087,0.0172 -0.0172,0.0345 -0.0172,0.0474 z m 0.396796,-0.40541 0.219948,-0.50461 0.219948,0.50461 z m 0,0"
       id="path6779"
       inkscape:connector-curvature="0" />
    <path
       style="fill:#000000;fill-opacity:1;stroke:none;stroke-width:0.27602378"
       d="m 75.982136,175.35142 c 0,0.0604 0.05175,0.10782 0.112131,0.10782 0.06038,0 0.11213,-0.0474 0.11213,-0.10782 v -0.95315 H 76.5126 c 0.05609,0 0.09922,-0.0474 0.09922,-0.0992 0,-0.0561 -0.04313,-0.10351 -0.09922,-0.10351 h -0.836692 c -0.05606,0 -0.09919,0.0474 -0.09919,0.10351 0,0.0517 0.04313,0.0992 0.09919,0.0992 h 0.306228 z m 0,0"
       id="path6775"
       inkscape:connector-curvature="0" />
    <path
       style="fill:#000000;fill-opacity:1;stroke:none;stroke-width:0.27602378"
       d="m 76.988717,175.45061 h 0.741813 c 0.05178,0 0.09922,-0.0431 0.09922,-0.0992 0,-0.0517 -0.04744,-0.0992 -0.09922,-0.0992 h -0.629656 v -0.3364 h 0.539089 c 0.05175,0 0.09919,-0.0431 0.09919,-0.0949 0,-0.0561 -0.04744,-0.10351 -0.09919,-0.10351 h -0.539089 v -0.32347 h 0.62103 c 0.05178,0 0.09491,-0.0431 0.09491,-0.0992 0,-0.0561 -0.04313,-0.0992 -0.09491,-0.0992 h -0.733187 c -0.06038,0 -0.11213,0.0474 -0.11213,0.11214 v 1.03077 c 0,0.0647 0.05175,0.11214 0.11213,0.11214 z m 0,0"
       id="path6771"
       inkscape:connector-curvature="0" />
    <path
       style="fill:#000000;fill-opacity:1;stroke:none;stroke-width:0.27602378"
       d="m 82.637069,175.35142 c 0,0.0604 0.05175,0.10782 0.11213,0.10782 0.06038,0 0.112157,-0.0474 0.112157,-0.10782 v -0.34072 h 0.276013 l 0.306203,0.39247 c 0.02593,0.0345 0.05606,0.0561 0.107844,0.0561 0.05175,0 0.103505,-0.0388 0.103505,-0.10351 0,-0.0345 -0.01297,-0.0561 -0.0345,-0.0819 l -0.241538,-0.3019 c 0.168222,-0.0561 0.284665,-0.17683 0.284665,-0.37522 v -0.004 c 0,-0.11213 -0.0345,-0.2027 -0.103505,-0.27171 -0.07766,-0.0776 -0.202723,-0.12507 -0.362294,-0.12507 h -0.448548 c -0.06038,0 -0.11213,0.0474 -0.11213,0.11213 z m 0.224287,-0.5348 v -0.42266 h 0.31914 c 0.163883,0 0.258763,0.0733 0.258763,0.21133 0,0.12939 -0.09919,0.21133 -0.258763,0.21133 z m 0,0"
       id="path6767"
       inkscape:connector-curvature="0" />
    <path
       style="fill:#000000;fill-opacity:1;stroke:none;stroke-width:0.27602378"
       d="m 84.575168,175.47218 c 0.38817,0 0.659871,-0.29759 0.659871,-0.65125 0,-0.35365 -0.267388,-0.64693 -0.655558,-0.64693 -0.383831,0 -0.655558,0.29328 -0.655558,0.64693 v 0.004 c 0,0.35366 0.267414,0.64693 0.651245,0.64693 z m 0.0042,-0.20271 c -0.250137,0 -0.426984,-0.2027 -0.426984,-0.44854 0,-0.24583 0.176847,-0.44422 0.422672,-0.44422 0.250137,0 0.426984,0.2027 0.426984,0.44422 v 0.004 c 0,0.24584 -0.172534,0.44423 -0.422672,0.44423 z m 0,0"
       id="path6763"
       inkscape:connector-curvature="0" />
    <path
       style="fill:#000000;fill-opacity:1;stroke:none;stroke-width:0.27602378"
       d="m 85.80601,175.37729 c 0.0217,0.0561 0.06038,0.0906 0.11213,0.0906 h 0.0217 c 0.05607,0 0.09488,-0.0345 0.116443,-0.0906 l 0.280326,-0.81944 0.280353,0.81944 c 0.0172,0.0561 0.05607,0.0906 0.11213,0.0906 h 0.0217 c 0.05175,0 0.09488,-0.0345 0.116443,-0.0906 l 0.370919,-1.0394 c 0.0042,-0.0129 0.0087,-0.0302 0.0087,-0.0474 0,-0.0561 -0.05175,-0.10351 -0.107818,-0.10351 -0.05609,0 -0.09059,0.0345 -0.107844,0.0776 l -0.288952,0.86689 -0.284638,-0.86258 c -0.0172,-0.0517 -0.05607,-0.0863 -0.112157,-0.0863 h -0.01296 c -0.05607,0 -0.09488,0.0345 -0.11213,0.0863 l -0.284639,0.86258 -0.288978,-0.86689 c -0.01296,-0.0431 -0.05607,-0.0776 -0.107818,-0.0776 -0.06038,0 -0.116443,0.0474 -0.116443,0.10782 0,0.0129 0.0042,0.0302 0.01297,0.0431 z m 0,0"
       id="path6759"
       inkscape:connector-curvature="0" />
    <path
       style="fill:#000000;fill-opacity:1;stroke:none;stroke-width:0.27602378"
       d="m 88.177999,175.35142 c 0,0.0604 0.05178,0.10782 0.107845,0.10782 0.06469,0 0.11213,-0.0474 0.11213,-0.10782 v -1.06528 c 0,-0.0604 -0.04744,-0.10783 -0.11213,-0.10783 -0.0345,0 -0.06469,0.009 -0.107845,0.0216 l -0.189759,0.0604 c -0.04744,0.0129 -0.07763,0.0474 -0.07763,0.0949 0,0.0474 0.04744,0.0906 0.09919,0.0906 0.0087,0 0.02593,0 0.03881,-0.004 l 0.129381,-0.0388 z m 0,0"
       id="path6751"
       inkscape:connector-curvature="0" />
    <path
       style="fill:#000000;fill-opacity:1;stroke:none;stroke-width:0.27602378"
       d="m 92.614348,175.35142 c 0,0.0604 0.05175,0.10782 0.11213,0.10782 0.06038,0 0.112157,-0.0474 0.112157,-0.10782 v -0.34072 h 0.276013 l 0.306202,0.39247 c 0.02593,0.0345 0.05607,0.0561 0.107845,0.0561 0.05175,0 0.103505,-0.0388 0.103505,-0.10351 0,-0.0345 -0.01296,-0.0561 -0.0345,-0.0819 l -0.241538,-0.3019 c 0.168222,-0.0561 0.284665,-0.17683 0.284665,-0.37522 v -0.004 c 0,-0.11213 -0.0345,-0.2027 -0.103505,-0.27171 -0.07765,-0.0776 -0.202724,-0.12507 -0.362294,-0.12507 H 92.72648 c -0.06038,0 -0.11213,0.0474 -0.11213,0.11213 z m 0.224287,-0.5348 v -0.42266 h 0.31914 c 0.163883,0 0.258763,0.0733 0.258763,0.21133 0,0.12939 -0.09919,0.21133 -0.258763,0.21133 z m 0,0"
       id="path6747"
       inkscape:connector-curvature="0" />
    <path
       style="fill:#000000;fill-opacity:1;stroke:none;stroke-width:0.27602378"
       d="m 94.552447,175.47218 c 0.38817,0 0.659871,-0.29759 0.659871,-0.65125 0,-0.35365 -0.267388,-0.64693 -0.655558,-0.64693 -0.383831,0 -0.655559,0.29328 -0.655559,0.64693 v 0.004 c 0,0.35366 0.267415,0.64693 0.651246,0.64693 z m 0.0042,-0.20271 c -0.250137,0 -0.426984,-0.2027 -0.426984,-0.44854 0,-0.24583 0.176847,-0.44422 0.422672,-0.44422 0.250137,0 0.426984,0.2027 0.426984,0.44422 v 0.004 c 0,0.24584 -0.172535,0.44423 -0.422672,0.44423 z m 0,0"
       id="path6743"
       inkscape:connector-curvature="0" />
    <path
       style="fill:#000000;fill-opacity:1;stroke:none;stroke-width:0.27602378"
       d="m 95.783315,175.37729 c 0.0217,0.0561 0.06038,0.0906 0.11213,0.0906 h 0.0217 c 0.05607,0 0.09488,-0.0345 0.116443,-0.0906 l 0.280326,-0.81944 0.280353,0.81944 c 0.0172,0.0561 0.05607,0.0906 0.11213,0.0906 h 0.0217 c 0.05175,0 0.09488,-0.0345 0.116443,-0.0906 l 0.37092,-1.0394 c 0.0042,-0.0129 0.0087,-0.0302 0.0087,-0.0474 0,-0.0561 -0.05175,-0.10351 -0.107818,-0.10351 -0.05609,0 -0.09059,0.0345 -0.107844,0.0776 l -0.288951,0.86689 -0.284639,-0.86258 c -0.0172,-0.0517 -0.05607,-0.0863 -0.112157,-0.0863 h -0.01296 c -0.05607,0 -0.09488,0.0345 -0.11213,0.0863 l -0.284639,0.86258 -0.288978,-0.86689 c -0.01296,-0.0431 -0.05606,-0.0776 -0.107817,-0.0776 -0.06038,0 -0.116444,0.0474 -0.116444,0.10782 0,0.0129 0.0042,0.0302 0.01297,0.0431 z m 0,0"
       id="path6739"
       inkscape:connector-curvature="0" />
    <path
       style="fill:#000000;fill-opacity:1;stroke:none;stroke-width:0.27602378"
       d="m 97.913793,175.3471 c 0,0.0647 0.05175,0.10351 0.116443,0.10351 h 0.711623 c 0.05607,0 0.09919,-0.0431 0.09919,-0.0949 0,-0.0561 -0.04313,-0.0992 -0.09919,-0.0992 H 98.23296 l 0.258762,-0.21564 c 0.224261,-0.18114 0.327766,-0.28896 0.327766,-0.48736 0,-0.22427 -0.168195,-0.37522 -0.41402,-0.37522 -0.198384,0 -0.314854,0.0733 -0.418359,0.20271 -0.01297,0.0172 -0.0217,0.0431 -0.0217,0.0647 0,0.0561 0.04313,0.10351 0.09919,0.10351 0.0345,0 0.06038,-0.0172 0.07763,-0.0345 0.07765,-0.0949 0.146659,-0.14233 0.245851,-0.14233 0.116443,0 0.202697,0.0733 0.202697,0.19839 0,0.11214 -0.06038,0.19408 -0.232886,0.33641 l -0.38817,0.32778 c -0.03881,0.0345 -0.05606,0.069 -0.05606,0.11213 z m 0,0"
       id="path6731"
       inkscape:connector-curvature="0" />
    <path
       style="fill:#000000;fill-opacity:1;stroke:none;stroke-width:0.27602378"
       d="m 102.78183,175.35142 c 0,0.0604 0.0517,0.10782 0.11214,0.10782 0.0604,0 0.11215,-0.0474 0.11215,-0.10782 v -0.34072 h 0.27602 l 0.3062,0.39247 c 0.0259,0.0345 0.0561,0.0561 0.10784,0.0561 0.0517,0 0.10351,-0.0388 0.10351,-0.10351 0,-0.0345 -0.013,-0.0561 -0.0345,-0.0819 l -0.24154,-0.3019 c 0.16822,-0.0561 0.28466,-0.17683 0.28466,-0.37522 v -0.004 c 0,-0.11213 -0.0345,-0.2027 -0.1035,-0.27171 -0.0776,-0.0776 -0.20273,-0.12507 -0.3623,-0.12507 h -0.44854 c -0.0604,0 -0.11213,0.0474 -0.11213,0.11213 z m 0.22429,-0.5348 v -0.42266 h 0.31914 c 0.16389,0 0.25876,0.0733 0.25876,0.21133 0,0.12939 -0.0992,0.21133 -0.25876,0.21133 z m 0,0"
       id="path6727"
       inkscape:connector-curvature="0" />
    <path
       style="fill:#000000;fill-opacity:1;stroke:none;stroke-width:0.27602378"
       d="m 104.71993,175.47218 c 0.38817,0 0.65987,-0.29759 0.65987,-0.65125 0,-0.35365 -0.26738,-0.64693 -0.65555,-0.64693 -0.38383,0 -0.65556,0.29328 -0.65556,0.64693 v 0.004 c 0,0.35366 0.26741,0.64693 0.65124,0.64693 z m 0.004,-0.20271 c -0.25013,0 -0.42698,-0.2027 -0.42698,-0.44854 0,-0.24583 0.17685,-0.44422 0.42267,-0.44422 0.25014,0 0.42699,0.2027 0.42699,0.44422 v 0.004 c 0,0.24584 -0.17254,0.44423 -0.42268,0.44423 z m 0,0"
       id="path6723"
       inkscape:connector-curvature="0" />
    <path
       style="fill:#000000;fill-opacity:1;stroke:none;stroke-width:0.27602378"
       d="m 105.9508,175.37729 c 0.0217,0.0561 0.0604,0.0906 0.11213,0.0906 h 0.0217 c 0.0561,0 0.0949,-0.0345 0.11645,-0.0906 l 0.28032,-0.81944 0.28035,0.81944 c 0.0172,0.0561 0.0561,0.0906 0.11213,0.0906 h 0.0217 c 0.0517,0 0.0949,-0.0345 0.11645,-0.0906 l 0.37092,-1.0394 c 0.004,-0.0129 0.009,-0.0302 0.009,-0.0474 0,-0.0561 -0.0517,-0.10351 -0.10782,-0.10351 -0.0561,0 -0.0906,0.0345 -0.10785,0.0776 l -0.28892,0.86689 -0.28464,-0.86258 c -0.0172,-0.0517 -0.0561,-0.0863 -0.11216,-0.0863 h -0.013 c -0.0561,0 -0.0949,0.0345 -0.11213,0.0863 l -0.28464,0.86258 -0.28898,-0.86689 c -0.013,-0.0431 -0.0561,-0.0776 -0.10781,-0.0776 -0.0604,0 -0.11645,0.0474 -0.11645,0.10782 0,0.0129 0.004,0.0302 0.013,0.0431 z m 0,0"
       id="path6719"
       inkscape:connector-curvature="0" />
    <path
       style="fill:#000000;fill-opacity:1;stroke:none;stroke-width:0.27602378"
       d="m 108.56002,175.47218 c 0.26307,0 0.43989,-0.16821 0.43989,-0.39679 v -0.004 c 0,-0.23289 -0.17682,-0.32778 -0.36658,-0.35365 l 0.29327,-0.30622 c 0.0388,-0.0388 0.0647,-0.069 0.0647,-0.12076 0,-0.0561 -0.0474,-0.0949 -0.11213,-0.0949 h -0.64262 c -0.0517,0 -0.0949,0.0431 -0.0949,0.0949 0,0.0517 0.0431,0.0949 0.0949,0.0949 h 0.45717 l -0.29326,0.31484 c -0.0345,0.0345 -0.0475,0.0604 -0.0475,0.0906 0,0.0517 0.0431,0.0949 0.0949,0.0949 h 0.0474 c 0.1725,0 0.28895,0.069 0.28895,0.19408 v 0.004 c 0,0.11214 -0.0949,0.18977 -0.21995,0.18977 -0.11644,0 -0.20701,-0.0431 -0.28467,-0.12076 -0.0172,-0.0172 -0.0431,-0.0302 -0.0733,-0.0302 -0.0561,0 -0.10781,0.0517 -0.10781,0.10782 0,0.0302 0.0172,0.0604 0.0388,0.0776 0.0992,0.0992 0.24153,0.16389 0.42267,0.16389 z m 0,0"
       id="path6711"
       inkscape:connector-curvature="0" />
    <path
       inkscape:connector-curvature="0"
       id="path37367"
       d="m 79.014605,187.26933 c 0,-0.35581 -0.291121,-0.64693 -0.646906,-0.64693 h -6.281711 c -0.355812,0 -0.646933,0.29112 -0.646933,0.64693 v 6.28278 c 0,0.35581 0.291121,0.64693 0.646933,0.64693 h 6.281711 c 0.355785,0 0.646906,-0.29112 0.646906,-0.64693 z m 0,0"
       style="fill:#000000;fill-opacity:1;fill-rule:nonzero;stroke:none;stroke-width:0.27602378" />
    <path
       inkscape:connector-curvature="0"
       id="path37369"
       d="m 89.333355,187.26933 c 0,-0.35581 -0.291121,-0.64693 -0.646959,-0.64693 h -6.281684 c -0.355812,0 -0.646907,0.29112 -0.646907,0.64693 v 6.28278 c 0,0.35581 0.291095,0.64693 0.646907,0.64693 h 6.281684 c 0.355838,0 0.646959,-0.29112 0.646959,-0.64693 z m 0,0"
       style="fill:#000000;fill-opacity:1;fill-rule:nonzero;stroke:none;stroke-width:0.27602378" />
    <path
       inkscape:connector-curvature="0"
       id="path37371"
       d="m 99.387522,187.26933 c 0,-0.35581 -0.291121,-0.64693 -0.646906,-0.64693 h -6.28277 c -0.355838,0 -0.645874,0.29112 -0.645874,0.64693 v 6.28278 c 0,0.35581 0.290036,0.64693 0.645874,0.64693 h 6.28277 c 0.355785,0 0.646906,-0.29112 0.646906,-0.64693 z m 0,0"
       style="fill:#000000;fill-opacity:1;fill-rule:nonzero;stroke:none;stroke-width:0.27602378" />
    <path
       inkscape:connector-curvature="0"
       id="path37373"
       d="m 109.70627,187.26933 c 0,-0.35581 -0.29112,-0.64693 -0.64693,-0.64693 h -6.28171 c -0.35579,0 -0.64691,0.29112 -0.64691,0.64693 v 6.28278 c 0,0.35581 0.29112,0.64693 0.64691,0.64693 h 6.28171 c 0.35581,0 0.64693,-0.29112 0.64693,-0.64693 z m 0,0"
       style="fill:#000000;fill-opacity:1;fill-rule:nonzero;stroke:none;stroke-width:0.27602378" />
    <g
       aria-label="Arpeggiator"
       style="font-style:normal;font-variant:normal;font-weight:normal;font-stretch:normal;font-size:4.23333311px;line-height:1.25;font-family:'.DecoType Naskh PUA';-inkscape-font-specification:'.DecoType Naskh PUA';letter-spacing:0px;word-spacing:0px;fill:#000000;fill-opacity:1;stroke:none;stroke-width:0.26458332"
       id="text113">
      <path
         d="m 58.266425,165.2851 -0.566374,1.53582 h 1.134814 z m -0.235645,-0.41135 h 0.473356 l 1.176156,3.08612 H 59.24621 l -0.28112,-0.79168 h -1.391129 l -0.28112,0.79168 h -0.440283 z"
         style="font-size:4.23333311px;stroke-width:0.26458332"
         id="path100" />
      <path
         d="m 61.453827,166.0003 q -0.06408,-0.0372 -0.14056,-0.0537 -0.07441,-0.0186 -0.165364,-0.0186 -0.322461,0 -0.496094,0.21084 -0.171566,0.20877 -0.171566,0.60152 v 1.21956 h -0.382406 v -2.3151 h 0.382406 v 0.35966 q 0.119889,-0.21084 0.312126,-0.31212 0.192236,-0.10336 0.467155,-0.10336 0.03927,0 0.08682,0.006 0.04754,0.004 0.10542,0.0145 z"
         style="font-size:4.23333311px;stroke-width:0.26458332"
         id="path102" />
      <path
         d="m 62.224839,167.6126 v 1.22784 h -0.382405 v -3.19567 h 0.382405 v 0.3514 q 0.11989,-0.20671 0.301791,-0.30593 0.183968,-0.10129 0.438216,-0.10129 0.421679,0 0.684196,0.33487 0.264583,0.33486 0.264583,0.88056 0,0.54571 -0.264583,0.88057 -0.262517,0.33486 -0.684196,0.33486 -0.254248,0 -0.438216,-0.0992 -0.181901,-0.10129 -0.301791,-0.308 z m 1.293978,-0.80822 q 0,-0.41961 -0.173633,-0.65732 -0.171565,-0.23978 -0.473356,-0.23978 -0.30179,0 -0.475423,0.23978 -0.171566,0.23771 -0.171566,0.65732 0,0.41962 0.171566,0.6594 0.173633,0.23771 0.475423,0.23771 0.301791,0 0.473356,-0.23771 0.173633,-0.23978 0.173633,-0.6594 z"
         style="font-size:4.23333311px;stroke-width:0.26458332"
         id="path104" />
      <path
         d="m 66.524318,166.70723 v 0.18604 h -1.74873 q 0.02481,0.39274 0.235644,0.59944 0.212907,0.20464 0.591179,0.20464 0.219108,0 0.423746,-0.0537 0.206706,-0.0537 0.409278,-0.16123 v 0.35967 q -0.204639,0.0868 -0.419613,0.13229 -0.214974,0.0455 -0.436149,0.0455 -0.553971,0 -0.878499,-0.32246 -0.322461,-0.32246 -0.322461,-0.8723 0,-0.56844 0.305924,-0.90123 0.307992,-0.33487 0.82889,-0.33487 0.467155,0 0.73794,0.3018 0.272851,0.29972 0.272851,0.81648 z m -0.380338,-0.11162 q -0.0041,-0.31212 -0.1757,-0.49816 -0.169499,-0.18603 -0.450619,-0.18603 -0.318326,0 -0.510563,0.17983 -0.190169,0.17983 -0.219108,0.50643 z"
         style="font-size:4.23333311px;stroke-width:0.26458332"
         id="path106" />
      <path
         d="m 68.67199,166.77545 q 0,-0.41342 -0.171565,-0.64079 -0.169499,-0.22738 -0.477491,-0.22738 -0.305924,0 -0.47749,0.22738 -0.169499,0.22737 -0.169499,0.64079 0,0.41134 0.169499,0.63872 0.171566,0.22737 0.47749,0.22737 0.307992,0 0.477491,-0.22737 0.171565,-0.22738 0.171565,-0.63872 z m 0.380339,0.8971 q 0,0.59118 -0.262516,0.8785 -0.262517,0.28939 -0.804086,0.28939 -0.200504,0 -0.378271,-0.031 -0.177767,-0.0289 -0.345199,-0.0909 v -0.37 q 0.167432,0.0909 0.330729,0.13435 0.163298,0.0434 0.332797,0.0434 0.374137,0 0.560172,-0.19637 0.186035,-0.1943 0.186035,-0.58911 v -0.1881 q -0.117822,0.20464 -0.30179,0.30592 -0.183968,0.10129 -0.440283,0.10129 -0.425814,0 -0.686263,-0.32453 -0.260449,-0.32453 -0.260449,-0.85989 0,-0.53744 0.260449,-0.86197 0.260449,-0.32453 0.686263,-0.32453 0.256315,0 0.440283,0.10129 0.183968,0.10129 0.30179,0.30593 v -0.3514 h 0.380339 z"
         style="font-size:4.23333311px;stroke-width:0.26458332"
         id="path108" />
      <path
         d="m 71.359165,166.77545 q 0,-0.41342 -0.171566,-0.64079 -0.169498,-0.22738 -0.47749,-0.22738 -0.305924,0 -0.47749,0.22738 -0.169499,0.22737 -0.169499,0.64079 0,0.41134 0.169499,0.63872 0.171566,0.22737 0.47749,0.22737 0.307992,0 0.47749,-0.22737 0.171566,-0.22738 0.171566,-0.63872 z m 0.380339,0.8971 q 0,0.59118 -0.262517,0.8785 -0.262516,0.28939 -0.804085,0.28939 -0.200504,0 -0.378271,-0.031 -0.177767,-0.0289 -0.345199,-0.0909 v -0.37 q 0.167432,0.0909 0.330729,0.13435 0.163298,0.0434 0.332796,0.0434 0.374138,0 0.560173,-0.19637 0.186035,-0.1943 0.186035,-0.58911 v -0.1881 q -0.117822,0.20464 -0.30179,0.30592 -0.183968,0.10129 -0.440283,0.10129 -0.425814,0 -0.686263,-0.32453 -0.26045,-0.32453 -0.26045,-0.85989 0,-0.53744 0.26045,-0.86197 0.260449,-0.32453 0.686263,-0.32453 0.256315,0 0.440283,0.10129 0.183968,0.10129 0.30179,0.30593 v -0.3514 h 0.380339 z"
         style="font-size:4.23333311px;stroke-width:0.26458332"
         id="path110" />
      <path
         d="m 72.522918,165.64477 h 0.380338 v 2.3151 h -0.380338 z m 0,-0.90124 h 0.380338 v 0.48162 h -0.380338 z"
         style="font-size:4.23333311px;stroke-width:0.26458332"
         id="path112" />
      <path
         d="m 74.749139,166.79612 q -0.460953,0 -0.63872,0.10542 -0.177767,0.10542 -0.177767,0.35966 0,0.20258 0.132291,0.32246 0.134359,0.11783 0.363802,0.11783 0.31626,0 0.506429,-0.22324 0.192237,-0.22531 0.192237,-0.59738 v -0.0847 z m 0.75861,-0.1571 v 1.32085 h -0.380338 v -0.3514 q -0.130225,0.21084 -0.324528,0.31213 -0.194304,0.0992 -0.475423,0.0992 -0.355534,0 -0.566374,-0.19843 -0.208773,-0.20051 -0.208773,-0.53537 0,-0.39068 0.260449,-0.58911 0.262517,-0.19844 0.781348,-0.19844 h 0.533301 v -0.0372 q 0,-0.26251 -0.173633,-0.40514 -0.171566,-0.14469 -0.483691,-0.14469 -0.198438,0 -0.38654,0.0475 -0.188102,0.0475 -0.361735,0.14262 v -0.35139 q 0.208773,-0.0806 0.405143,-0.11989 0.196371,-0.0413 0.382406,-0.0413 0.502295,0 0.750341,0.26045 0.248047,0.26045 0.248047,0.78962 z"
         style="font-size:4.23333311px;stroke-width:0.26458332"
         id="path114" />
      <path
         d="m 76.669435,164.98744 v 0.65733 h 0.783415 v 0.29558 h -0.783415 v 1.25678 q 0,0.28318 0.07648,0.3638 0.07855,0.0806 0.316259,0.0806 h 0.390674 v 0.31833 h -0.390674 q -0.440283,0 -0.607714,-0.1633 -0.167432,-0.16536 -0.167432,-0.59944 v -1.25678 h -0.279053 v -0.29558 h 0.279053 v -0.65733 z"
         style="font-size:4.23333311px;stroke-width:0.26458332"
         id="path116" />
      <path
         d="m 78.852247,165.91142 q -0.305925,0 -0.483692,0.23977 -0.177767,0.23772 -0.177767,0.65319 0,0.41548 0.1757,0.65526 0.177767,0.23771 0.485759,0.23771 0.303857,0 0.481624,-0.23978 0.177767,-0.23977 0.177767,-0.65319 0,-0.41134 -0.177767,-0.65112 -0.177767,-0.24184 -0.481624,-0.24184 z m 0,-0.32247 q 0.496094,0 0.77928,0.32247 0.283187,0.32246 0.283187,0.89296 0,0.56845 -0.283187,0.89297 -0.283186,0.32246 -0.77928,0.32246 -0.498161,0 -0.781348,-0.32246 -0.28112,-0.32452 -0.28112,-0.89297 0,-0.5705 0.28112,-0.89296 0.283187,-0.32247 0.781348,-0.32247 z"
         style="font-size:4.23333311px;stroke-width:0.26458332"
         id="path118" />
      <path
         d="m 81.88462,166.0003 q -0.06408,-0.0372 -0.14056,-0.0537 -0.07441,-0.0186 -0.165365,-0.0186 -0.322461,0 -0.496094,0.21084 -0.171565,0.20877 -0.171565,0.60152 v 1.21956 H 80.52863 v -2.3151 h 0.382406 v 0.35966 q 0.119889,-0.21084 0.312125,-0.31212 0.192237,-0.10336 0.467155,-0.10336 0.03927,0 0.08682,0.006 0.04754,0.004 0.10542,0.0145 z"
         style="font-size:4.23333311px;stroke-width:0.26458332"
         id="path120" />
    </g>
    <g
       aria-label="up up/dn rand"
       style="font-style:normal;font-variant:normal;font-weight:normal;font-stretch:normal;font-size:1.41111112px;line-height:1.25;font-family:'.DecoType Naskh PUA';-inkscape-font-specification:'.DecoType Naskh PUA';text-align:end;letter-spacing:0px;word-spacing:0px;text-anchor:end;fill:#000000;fill-opacity:1;stroke:none;stroke-width:0.26458332"
       id="text117"
       transform="translate(-7.1311143,-18.338031)">
      <path
         d="m 37.916212,255.47019 v -0.46716 h 0.12678 v 0.46233 q 0,0.10956 0.04272,0.16468 0.04272,0.0544 0.128157,0.0544 0.102664,0 0.16192,-0.0654 0.05994,-0.0655 0.05994,-0.17846 v -0.43753 h 0.12678 v 0.7717 h -0.12678 v -0.11851 q -0.04616,0.0703 -0.107487,0.10473 -0.06063,0.0338 -0.141248,0.0338 -0.132981,0 -0.201883,-0.0827 -0.0689,-0.0827 -0.0689,-0.24184 z"
         style="font-size:1.41111112px;text-align:end;text-anchor:end;stroke-width:0.26458332"
         id="path123"
         inkscape:connector-curvature="0" />
      <path
         d="m 38.947674,255.65898 v 0.40928 h -0.127469 v -1.06523 h 0.127469 v 0.11714 q 0.03996,-0.0689 0.100596,-0.10198 0.06132,-0.0338 0.146072,-0.0338 0.14056,0 0.228066,0.11162 0.08819,0.11162 0.08819,0.29352 0,0.1819 -0.08819,0.29352 -0.08751,0.11163 -0.228066,0.11163 -0.08475,0 -0.146072,-0.0331 -0.06063,-0.0338 -0.100596,-0.10266 z M 39.379,255.38957 q 0,-0.13987 -0.05788,-0.21911 -0.05719,-0.0799 -0.157785,-0.0799 -0.100597,0 -0.158475,0.0799 -0.05719,0.0792 -0.05719,0.21911 0,0.13987 0.05719,0.2198 0.05788,0.0792 0.158475,0.0792 0.100596,0 0.157785,-0.0792 0.05788,-0.0799 0.05788,-0.2198 z"
         style="font-size:1.41111112px;text-align:end;text-anchor:end;stroke-width:0.26458332"
         id="path125"
         inkscape:connector-curvature="0" />
      <path
         d="m 35.523938,257.39212 v -0.46715 h 0.126779 v 0.46233 q 0,0.10955 0.04272,0.16467 0.04272,0.0544 0.128158,0.0544 0.102664,0 0.161919,-0.0655 0.05994,-0.0655 0.05994,-0.17846 v -0.43752 h 0.12678 v 0.7717 h -0.12678 v -0.11851 q -0.04616,0.0703 -0.107487,0.10473 -0.06063,0.0338 -0.141249,0.0338 -0.13298,0 -0.201882,-0.0827 -0.0689,-0.0827 -0.0689,-0.24185 z"
         style="font-size:1.41111112px;text-align:end;text-anchor:end;stroke-width:0.26458332"
         id="path127"
         inkscape:connector-curvature="0" />
      <path
         d="m 36.555399,257.58091 v 0.40928 h -0.127468 v -1.06522 h 0.127468 v 0.11713 q 0.03996,-0.0689 0.100597,-0.10197 0.06132,-0.0338 0.146072,-0.0338 0.14056,0 0.228065,0.11162 0.08819,0.11163 0.08819,0.29353 0,0.1819 -0.08819,0.29352 -0.08751,0.11162 -0.228065,0.11162 -0.08475,0 -0.146072,-0.0331 -0.06063,-0.0338 -0.100597,-0.10267 z m 0.431326,-0.2694 q 0,-0.13987 -0.05788,-0.21911 -0.05719,-0.0799 -0.157786,-0.0799 -0.100596,0 -0.158474,0.0799 -0.05719,0.0792 -0.05719,0.21911 0,0.13987 0.05719,0.21979 0.05788,0.0792 0.158474,0.0792 0.100597,0 0.157786,-0.0792 0.05788,-0.0799 0.05788,-0.21979 z"
         style="font-size:1.41111112px;text-align:end;text-anchor:end;stroke-width:0.26458332"
         id="path129"
         inkscape:connector-curvature="0" />
      <path
         d="m 37.692524,256.83302 q -0.07505,0.17224 -0.313717,0.96576 -0.02461,0.0824 -0.01845,0.12672 -0.02584,0.01 -0.0406,0.01 -0.02215,0 -0.02215,-0.0209 0,-0.0197 0.03322,-0.13409 0.143941,-0.4958 0.305105,-0.94731 z"
         style="font-size:1.41111112px;text-align:end;text-anchor:end;stroke-width:0.26458332"
         id="path131"
         inkscape:connector-curvature="0" />
      <path
         d="m 38.437111,257.0421 v -0.41755 h 0.126779 v 1.07212 h -0.126779 v -0.11576 q -0.03996,0.0689 -0.101286,0.10267 -0.06063,0.0331 -0.146072,0.0331 -0.139871,0 -0.228066,-0.11162 -0.08751,-0.11162 -0.08751,-0.29352 0,-0.1819 0.08751,-0.29353 0.08819,-0.11162 0.228066,-0.11162 0.08544,0 0.146072,0.0338 0.06132,0.0331 0.101286,0.10197 z m -0.432015,0.26941 q 0,0.13987 0.05719,0.21979 0.05788,0.0792 0.158475,0.0792 0.100596,0 0.158474,-0.0792 0.05788,-0.0799 0.05788,-0.21979 0,-0.13987 -0.05788,-0.21911 -0.05788,-0.0799 -0.158474,-0.0799 -0.100597,0 -0.158475,0.0799 -0.05719,0.0792 -0.05719,0.21911 z"
         style="font-size:1.41111112px;text-align:end;text-anchor:end;stroke-width:0.26458332"
         id="path133"
         inkscape:connector-curvature="0" />
      <path
         d="m 39.466505,257.23089 v 0.46578 h -0.126779 v -0.46164 q 0,-0.10956 -0.04272,-0.16399 -0.04272,-0.0544 -0.128157,-0.0544 -0.102664,0 -0.16192,0.0654 -0.05926,0.0655 -0.05926,0.17846 v 0.43615 H 38.8202 v -0.7717 h 0.127469 v 0.11989 q 0.04548,-0.0696 0.106798,-0.10405 0.06201,-0.0344 0.142627,-0.0344 0.13298,0 0.201193,0.0827 0.06821,0.082 0.06821,0.24184 z"
         style="font-size:1.41111112px;text-align:end;text-anchor:end;stroke-width:0.26458332"
         id="path135"
         inkscape:connector-curvature="0" />
      <path
         d="m 36.929537,258.96541 q -0.02136,-0.0124 -0.04685,-0.0179 -0.0248,-0.006 -0.05512,-0.006 -0.107487,0 -0.165365,0.0703 -0.05719,0.0696 -0.05719,0.2005 v 0.40652 H 36.47754 v -0.7717 h 0.127469 v 0.11989 q 0.03996,-0.0703 0.104042,-0.10404 0.06408,-0.0344 0.155718,-0.0344 0.01309,0 0.02894,0.002 0.01585,10e-4 0.03514,0.005 z"
         style="font-size:1.41111112px;text-align:end;text-anchor:end;stroke-width:0.26458332"
         id="path137"
         inkscape:connector-curvature="0" />
      <path
         d="m 37.414606,259.23068 q -0.153651,0 -0.212907,0.0351 -0.05926,0.0351 -0.05926,0.11989 0,0.0675 0.0441,0.10749 0.04479,0.0393 0.121267,0.0393 0.10542,0 0.16881,-0.0744 0.06408,-0.0751 0.06408,-0.19913 v -0.0283 z m 0.25287,-0.0524 v 0.44028 h -0.126779 v -0.11713 q -0.04341,0.0703 -0.108176,0.10404 -0.06477,0.0331 -0.158475,0.0331 -0.118511,0 -0.188791,-0.0661 -0.06959,-0.0668 -0.06959,-0.17846 0,-0.13022 0.08682,-0.19637 0.08751,-0.0661 0.26045,-0.0661 h 0.177767 v -0.0124 q 0,-0.0875 -0.05788,-0.13505 -0.05719,-0.0482 -0.16123,-0.0482 -0.06615,0 -0.128847,0.0159 -0.0627,0.0159 -0.120578,0.0475 v -0.11713 q 0.06959,-0.0269 0.135047,-0.04 0.06546,-0.0138 0.127469,-0.0138 0.167432,0 0.250114,0.0868 0.08268,0.0868 0.08268,0.26321 z"
         style="font-size:1.41111112px;text-align:end;text-anchor:end;stroke-width:0.26458332"
         id="path139"
         inkscape:connector-curvature="0" />
      <path
         d="m 38.57078,259.15282 v 0.46578 h -0.126779 v -0.46164 q 0,-0.10956 -0.04272,-0.16399 -0.04272,-0.0544 -0.128158,-0.0544 -0.102664,0 -0.161919,0.0655 -0.05926,0.0654 -0.05926,0.17845 v 0.43615 H 37.92448 v -0.7717 h 0.127469 v 0.11989 q 0.04547,-0.0696 0.106798,-0.10404 0.06201,-0.0344 0.142627,-0.0344 0.13298,0 0.201193,0.0827 0.06821,0.082 0.06821,0.24184 z"
         style="font-size:1.41111112px;text-align:end;text-anchor:end;stroke-width:0.26458332"
         id="path141"
         inkscape:connector-curvature="0" />
      <path
         d="m 39.332835,258.96403 v -0.41754 h 0.12678 v 1.07211 h -0.12678 v -0.11575 q -0.03996,0.0689 -0.101285,0.10266 -0.06063,0.0331 -0.146073,0.0331 -0.13987,0 -0.228065,-0.11162 -0.0875,-0.11162 -0.0875,-0.29352 0,-0.1819 0.0875,-0.29352 0.0882,-0.11162 0.228065,-0.11162 0.08544,0 0.146073,0.0338 0.06132,0.0331 0.101285,0.10197 z m -0.432015,0.26941 q 0,0.13987 0.05719,0.2198 0.05788,0.0792 0.158474,0.0792 0.100597,0 0.158475,-0.0792 0.05788,-0.0799 0.05788,-0.2198 0,-0.13987 -0.05788,-0.21911 -0.05788,-0.0799 -0.158475,-0.0799 -0.100596,0 -0.158474,0.0799 -0.05719,0.0792 -0.05719,0.21911 z"
         style="font-size:1.41111112px;text-align:end;text-anchor:end;stroke-width:0.26458332"
         id="path143"
         inkscape:connector-curvature="0" />
    </g>
    <g
       aria-label="root"
       style="font-style:normal;font-variant:normal;font-weight:normal;font-stretch:normal;font-size:2.82222223px;line-height:1.25;font-family:'.DecoType Naskh PUA';-inkscape-font-specification:'.DecoType Naskh PUA';text-align:start;letter-spacing:0px;word-spacing:0px;text-anchor:start;fill:#000000;fill-opacity:1;stroke:none;stroke-width:0.26458332"
       id="text236">
      <path
         d="m 33.597511,201.29123 q -0.04272,-0.0248 -0.09371,-0.0358 -0.04961,-0.0124 -0.110243,-0.0124 -0.214974,0 -0.330729,0.14056 -0.114377,0.13918 -0.114377,0.40101 v 0.81304 h -0.254937 v -1.5434 h 0.254937 v 0.23978 q 0.07993,-0.14056 0.208083,-0.20809 0.128158,-0.0689 0.311437,-0.0689 0.02618,0 0.05788,0.004 0.03169,0.003 0.07028,0.01 z"
         style="text-align:start;text-anchor:start;stroke-width:0.26458332"
         id="path238" />
      <path
         d="m 34.406419,201.23197 q -0.20395,0 -0.322461,0.15986 -0.118511,0.15847 -0.118511,0.43546 0,0.27698 0.117133,0.43684 0.118511,0.15847 0.323839,0.15847 0.202572,0 0.321083,-0.15985 0.118511,-0.15986 0.118511,-0.43546 0,-0.27423 -0.118511,-0.43408 -0.118511,-0.16124 -0.321083,-0.16124 z m 0,-0.21497 q 0.330729,0 0.519521,0.21497 0.188791,0.21498 0.188791,0.59532 0,0.37896 -0.188791,0.59531 -0.188792,0.21497 -0.519521,0.21497 -0.332107,0 -0.520898,-0.21497 -0.187414,-0.21635 -0.187414,-0.59531 0,-0.38034 0.187414,-0.59532 0.188791,-0.21497 0.520898,-0.21497 z"
         style="text-align:start;text-anchor:start;stroke-width:0.26458332"
         id="path240" />
      <path
         d="m 36.134479,201.23197 q -0.20395,0 -0.322461,0.15986 -0.118511,0.15847 -0.118511,0.43546 0,0.27698 0.117133,0.43684 0.118511,0.15847 0.323839,0.15847 0.202572,0 0.321083,-0.15985 0.118511,-0.15986 0.118511,-0.43546 0,-0.27423 -0.118511,-0.43408 -0.118511,-0.16124 -0.321083,-0.16124 z m 0,-0.21497 q 0.330729,0 0.519521,0.21497 0.188791,0.21498 0.188791,0.59532 0,0.37896 -0.188791,0.59531 -0.188792,0.21497 -0.519521,0.21497 -0.332107,0 -0.520898,-0.21497 -0.187414,-0.21635 -0.187414,-0.59531 0,-0.38034 0.187414,-0.59532 0.188791,-0.21497 0.520898,-0.21497 z"
         style="text-align:start;text-anchor:start;stroke-width:0.26458332"
         id="path242" />
      <path
         d="m 37.512517,200.61599 v 0.43822 h 0.522277 v 0.19706 h -0.522277 v 0.83784 q 0,0.1888 0.05099,0.24254 0.05237,0.0537 0.210839,0.0537 h 0.26045 v 0.21222 h -0.26045 q -0.293522,0 -0.405143,-0.10886 -0.111621,-0.11025 -0.111621,-0.39964 v -0.83784 h -0.186035 v -0.19706 h 0.186035 v -0.43822 z"
         style="text-align:start;text-anchor:start;stroke-width:0.26458332"
         id="path244" />
    </g>
  </g>
</svg>
